<?xml version="1.0"?><svg width="745" height="179" xmlns="http://www.w3.org/2000/svg" xmlns:xlink="http://www.w3.org/1999/xlink">
 <title>Book Now Button - longer</title>
 <defs>
  <linearGradient x1="0.479399" y1="0.225019" x2="0.463935" y2="0.862508" id="linearGradient4575" xlink:href="#linearGradient3113-4"/>
  <linearGradient id="linearGradient3113-4">
   <stop id="stop3115-9" offset="0" stop-color="#ffde54"/>
   <stop id="stop3117-7" offset="1" stop-opacity="0" stop-color="#ffde54"/>
  </linearGradient>
  <linearGradient x1="0.551379" y1="0.439001" x2="0.562671" y2="0.8807" id="linearGradient4577" xlink:href="#linearGradient3177"/>
  <linearGradient id="linearGradient3177">
   <stop id="stop3179" offset="0" stop-color="#ff6600"/>
   <stop id="stop3181" offset="1" stop-opacity="0" stop-color="#ff6600"/>
  </linearGradient>
  <linearGradient id="linearGradient3037-1">
   <stop id="stop3039-49" offset="0" stop-color="#ffffff"/>
   <stop id="stop3041-1" offset="1" stop-opacity="0" stop-color="#ffffff"/>
  </linearGradient>
  <linearGradient x1="0.272728" y1="-0.572735" x2="0.272728" y2="1.438992" id="linearGradient5748" xlink:href="#linearGradient3037-1"/>
 </defs>
 <metadata id="metadata4">image/svg+xml</metadata>
 <g>
  <title>Layer 1</title>
  <path d="m-822.170593,-689.315186l215.498901,0c8.427246,0 15.21167,6.784424 15.21167,15.21167l0,70.987854c0,8.427307 -6.784424,15.211731 -15.21167,15.211731l-215.498901,0c-8.427246,0 -15.21167,-6.784424 -15.21167,-15.211731l0,-70.987854c0,-8.427246 6.784424,-15.21167 15.21167,-15.21167z" transform="translate(43.9657, -21.9106) scale(-1) matrix(3.02852, 0, 0, 1.76209, 1835.21, 1014.03)" id="rect3151" fill="#e9a30f"/>
  <path d="m-820.587891,-686.344971l212.333496,0c6.494995,0 11.723816,5.228821 11.723816,11.723816l0,54.711121c0,6.494995 -5.228821,11.723755 -11.723816,11.723755l-212.333496,0c-6.494995,0 -11.723816,-5.22876 -11.723816,-11.723755l0,-54.711121c0,-6.494995 5.228821,-11.723816 11.723816,-11.723816z" transform="translate(43.9657, -21.9106) scale(-1) matrix(3.02852, 0, 0, 1.76209, 1835.21, 1014.03)" id="rect3155" fill="url(#linearGradient4575)"/>
  <path stroke-width="45" d="m687.325012,3.778897c-218.313721,2.319731 -436.754807,-1.747999 -655.012135,2.037414c-25.981425,8.705255 -16.623402,28.987332 -16.656858,43.281277c1.155844,37.916824 -5.299911,76.408714 3.974932,113.92997c17.386448,13.579071 50.999069,6.951889 75.966797,8.244308c206.449738,-1.523651 413.168976,1.300049 619.457123,-1.361145c24.86499,-6.630096 20.724426,-25.481766 18.455078,-38.54567c-1.817444,-39.721718 6.108948,-80.131641 -4.542786,-119.381434c-8.917175,-7.825394 -26.956665,-8.557912 -41.642151,-8.20472z" id="path3093" fill="url(#linearGradient4577)"/>
  <path d="m689.71521,6.870939c-213.947784,1.802526 -428.266052,-0.254892 -642.011295,1.075278c-30.132889,-1.19541 -39.310872,24.520916 -33.730736,41.398518c0.24067,6.39402 0.263776,12.80471 0.280967,19.220779c63.67027,21.46286 143.784276,39.313782 231.337605,37.03019c134.610184,-3.510948 347.536362,-32.925568 482.445419,-53.495556c-0.529541,-10.387112 -1.389648,-20.745935 -2.904663,-31.048834c-6.427856,-9.384107 -21.707214,-13.876763 -35.417297,-14.180375z" id="path3159" fill="url(#linearGradient5748)"/>
  <text fill="#003f7f" stroke="#000000" stroke-width="0" x="95.489034" y="116.376769" id="svg_1" font-size="21" font-family="Arial" text-anchor="middle" xml:space="preserve" transform="matrix(3.93259, 0, 0, 5.30631, -4.76552, -491.889)">Book online now</text>
 </g>
</svg>